<svg width="16" height="16" viewBox="0 0 16 16" fill="none" xmlns="http://www.w3.org/2000/svg">
<path d="M3.90667 7.60667C3.42667 7.60667 3.05333 7.86 3.14667 8.38H2.89333C2.76 8.14 2.69333 7.87333 2.69333 7.59333C2.69333 6.96667 3.02667 6.54 3.46667 6.32667C3.73333 6.20667 4.02667 6.15333 4.32 6.11333V5.76667C4.32 5.03333 4.66667 4.76667 5.12 4.48667C5.49333 4.24667 5.86667 4.00667 6.24 3.76667C6.2 3.76667 6.14667 3.78 6.09333 3.78C5.48 3.78 5.05333 3.46 4.45333 3.46C3.98667 3.46 3.65333 3.7 3.52 4.04667H3.21333C3.54667 3.23333 4.36 2.39333 5.52 2.39333C6.14667 2.39333 6.70667 2.64667 7.34667 2.64667C7.8 2.64667 8.22667 2.5 8.53333 2.31333L8.45333 2.62L6.48 4.15333C6.18667 4.38 6.04 4.64667 6.04 5.14V8.44667C6.04 10.1 4.86667 10.9267 3.62667 11.2333L3.50667 10.9133C4.24 10.4867 4.32 9.63333 4.32 8.51333C4.32 8.22 4.32 7.91333 4.32 7.60667C4.18667 7.60667 4.04 7.60667 3.90667 7.60667ZM9.34667 10.82C9.66667 10.9933 9.96 11.1933 10.2 11.4067L11.2933 10.9V9.43333L9.34667 10.42C9.34667 10.5533 9.34667 10.6867 9.34667 10.82ZM9.34667 6.80667C9.34667 7.39333 9.34667 7.99333 9.34667 8.59333L11.1067 7.7C10.5867 7.34 9.98667 7.03333 9.34667 6.80667ZM8.97333 10.6467C8.97333 8.22 8.97333 5.79333 8.97333 3.36667C8.68 3.59333 8.44 3.92667 8.44 4.34V7.83333C8.44 9.12667 7.73333 9.74 7.02667 10.34C7.12 10.34 7.2 10.3267 7.29333 10.3267C7.92 10.3267 8.48 10.4467 8.97333 10.6467ZM9.34667 9.02C9.34667 9.34 9.34667 9.66 9.34667 9.99333L11.2933 9.00667V8.03333L9.34667 9.02ZM9.34667 3.3C9.34667 4.43333 9.34667 5.56667 9.34667 6.71333L11.12 5.38L9.34667 3.3ZM11.2133 5.86C11.9067 6.11333 12.52 6.47333 13.04 6.9V10.2467L8.58667 12.5533C7.78667 12.14 6.88 11.9 5.98667 11.9C4.78667 11.9 3.88 12.3133 3.24 12.9267H2.90667C3.61333 11.7 4.81333 10.7267 6.32 10.42C6.53333 10.1133 6.66667 9.72667 6.66667 9.19333V5.03333C7.66667 3.75333 9.05333 2.72667 10.72 2.16667L12.88 4.7L11.2133 5.86Z" fill="black"/>
</svg>
